<svg width="199" height="69" viewBox="0 0 199 69" fill="none" xmlns="http://www.w3.org/2000/svg">
<g opacity="0.2">
<path d="M82.1427 50.1202C82.4919 50.1202 82.8412 50.0155 83.1555 49.9457V52.3885C82.5269 52.6327 81.7585 52.7723 80.9902 52.7723C79.5932 52.7723 78.4756 52.214 77.9168 50.9926C76.4151 52.214 74.5291 52.9817 72.1193 52.9817C69.3254 52.9817 66.741 51.4463 66.741 48.2707C66.741 44.3274 70.3731 43.1409 73.5862 43.1409C74.9133 43.1409 76.3801 43.3154 77.5676 43.5946V43.0362C77.5676 41.117 76.1706 39.7909 73.5513 39.7909C71.2812 39.7909 69.3952 40.3492 68.0332 40.9774V37.8367C69.2555 37.4179 71.4558 36.8247 73.9005 36.8247C78.2311 36.8247 80.9902 38.8836 80.9902 43.5248V49.0035C81.0251 49.841 81.514 50.1202 82.1427 50.1202ZM70.2683 48.0264C70.2683 49.527 71.5955 50.2947 73.1322 50.2947C74.7736 50.2947 76.3452 49.7014 77.5676 48.4801V45.8977C76.6246 45.7233 75.3324 45.5139 74.2497 45.5139C72.3289 45.5139 70.2683 46.1071 70.2683 48.0264Z" fill="black"/>
<path d="M93.0392 36.7898C94.7505 36.7898 96.4269 37.1737 97.754 37.9763V41.1169C96.6364 40.3143 95.0648 39.8258 93.4932 39.8258C90.7691 39.8258 88.045 41.2565 88.045 44.8857C88.045 48.3754 90.6993 49.9457 93.4583 49.9457C95.0998 49.9457 96.7063 49.4572 97.9286 48.7592V51.9348C96.4618 52.6327 94.7854 52.9817 92.8646 52.9817C88.7784 52.9817 84.5875 50.5041 84.5875 45.0253C84.5526 39.2674 88.9531 36.7898 93.0392 36.7898Z" fill="black"/>
<path d="M115.426 50.1202C115.775 50.1202 116.124 50.0155 116.439 49.9457V52.3885C115.81 52.6327 115.042 52.7723 114.273 52.7723C112.876 52.7723 111.759 52.214 111.2 50.9926C109.698 52.214 107.812 52.9817 105.402 52.9817C102.608 52.9817 100.024 51.4463 100.024 48.2707C100.024 44.3274 103.656 43.1409 106.869 43.1409C108.196 43.1409 109.663 43.3154 110.851 43.5946V43.0362C110.851 41.117 109.454 39.7909 106.834 39.7909C104.564 39.7909 102.678 40.3492 101.316 40.9774V37.8367C102.539 37.4179 104.739 36.8247 107.184 36.8247C111.514 36.8247 114.273 38.8836 114.273 43.5248V49.0035C114.308 49.841 114.832 50.1202 115.426 50.1202ZM103.586 48.0264C103.586 49.527 104.913 50.2947 106.45 50.2947C108.092 50.2947 109.663 49.7014 110.886 48.4801V45.8977C109.943 45.7233 108.65 45.5139 107.568 45.5139C105.612 45.5139 103.586 46.1071 103.586 48.0264Z" fill="black"/>
<path d="M134.425 30.1594V52.5279H131.352V50.0852C130.164 51.5857 128.348 52.9117 125.484 52.9117C120.839 52.9117 117.871 49.2476 117.871 44.8158C117.871 40.4189 120.839 36.7199 125.484 36.7199C128.173 36.7199 129.955 37.9064 131.002 39.1277V30.1594H134.425ZM126.078 39.7908C123.319 39.7908 121.328 41.8496 121.328 44.8856C121.328 47.8867 123.354 49.9456 126.078 49.9456C128.488 49.9456 130.234 48.4101 130.967 46.7351V43.0012C130.234 41.3262 128.488 39.7908 126.078 39.7908Z" fill="black"/>
<path d="M145.496 36.7898C151.608 36.7898 153.703 41.7102 152.725 46.142H141.2C141.584 48.8988 144.273 50.0504 147.067 50.0504C148.918 50.0504 150.63 49.5967 151.922 48.9686V51.8999C150.525 52.5629 148.569 52.9468 146.439 52.9468C141.724 52.9468 137.742 50.2598 137.742 44.8508C137.742 39.3023 141.968 36.7898 145.496 36.7898ZM145.67 39.6164C143.365 39.6164 141.305 40.9773 141.165 43.5597H149.652C149.861 42.2336 149.023 39.6164 145.67 39.6164Z" fill="black"/>
<path d="M156.218 52.528V37.2085H159.256V39.1278C160.094 38.1856 161.875 36.7898 164.355 36.7898C166.66 36.7898 168.267 37.732 169.14 39.2325C170.467 37.9065 172.283 36.7898 174.518 36.7898C178.569 36.7898 180.351 39.7909 180.351 42.9664V52.5629H176.928V43.0711C176.928 41.082 175.741 39.8607 173.89 39.8607C172.213 39.8607 170.886 40.9773 170.083 41.9195C170.118 42.2685 170.153 42.6175 170.153 42.9664V52.5629H166.73V43.0711C166.73 41.082 165.543 39.8607 163.692 39.8607C161.841 39.8607 160.444 41.1867 159.64 42.2336V52.5629H156.218V52.528Z" fill="black"/>
<path d="M195.438 37.2084H199L191.806 54.6218C190.129 58.6 187.964 59.9609 185.624 59.9609C184.961 59.9609 184.297 59.8562 183.598 59.7167V56.8202C184.122 56.9947 184.646 57.0296 185.17 57.0296C186.846 57.0296 188.069 55.8431 188.977 53.4702L189.291 52.7025L181.992 37.2433H185.624L190.793 48.794L195.438 37.2084Z" fill="black"/>
<path d="M71.281 3.32422V12.0482C72.3986 10.8967 74.1448 9.95448 76.2403 9.95448C80.1169 9.95448 82.5616 12.5717 82.5616 16.2009V25.6926H79.139V16.6545C79.139 14.1769 77.6023 12.9904 75.5767 12.9904C73.6209 12.9904 72.1541 14.3165 71.281 15.5379V25.6926H67.8584V3.32422H71.281Z" fill="black"/>
<path d="M91.9212 4.89587V10.3397H97.4742V13.3409H91.9212V20.3551C91.9212 22.3791 92.8642 23.0421 94.82 23.0421C95.9376 23.0421 96.9504 22.8327 97.9283 22.4489V25.3802C96.7757 25.7989 95.3089 26.0432 93.8072 26.0432C90.8386 26.0432 88.5336 24.5776 88.5336 20.9832V13.306H85.7745V10.3048H88.5336V5.73339L91.9212 4.89587Z" fill="black"/>
<path d="M101.875 25.6929V10.3733H104.913V12.2927C105.752 11.3504 107.533 9.95459 110.012 9.95459C112.317 9.95459 113.924 10.8968 114.797 12.3973C116.124 11.0713 117.94 9.95459 120.175 9.95459C124.227 9.95459 126.008 12.9557 126.008 16.1313V25.7278H122.585V16.2011C122.585 14.212 121.398 12.9906 119.547 12.9906C117.87 12.9906 116.543 14.1073 115.74 15.0495C115.775 15.3984 115.81 15.7474 115.81 16.0964V25.6929H112.387V16.2011C112.387 14.212 111.2 12.9906 109.349 12.9906C107.498 12.9906 106.101 14.3166 105.298 15.3635V25.6929H101.875Z" fill="black"/>
<path d="M134.424 3.32422H131.002V25.6926H134.424V3.32422Z" fill="black"/>
<path d="M27.0665 0.707015L26.7871 0.672119L0 3.46382V52.528L26.7871 68.4407L53.5742 52.528V3.46382L27.0665 0.707015ZM50.0818 50.5389L26.7871 64.3927L3.49245 50.5389V30.4386L26.6823 44.2227L26.7173 46.7352L10.8266 37.2783L10.7917 39.721L26.7522 49.3175L26.7871 51.8649L10.8266 42.3383L10.7917 44.781L26.7522 54.3775L42.8873 44.7461V42.3034H42.8524V41.4659V40.4539V34.3819L50.0469 30.0897V50.5389H50.0818ZM50.0469 27.4725L43.6906 31.2064L40.7569 32.9512L26.7173 24.6459L26.6823 27.0886L38.6615 34.1725L38.5567 34.2423L38.3122 34.3819L36.6009 35.3939L26.7173 29.5313L26.6823 31.9741L34.5054 36.6153L32.6544 37.8366L32.6195 37.8715L26.7173 34.3819L26.6823 36.8247L30.559 39.0929L26.6125 41.4659L3.5623 27.7516L26.6474 13.8629L50.0469 27.4725ZM50.0818 25.0646L26.6823 11.2806L3.49245 25.0297V6.63938L26.7871 4.19664L50.0818 6.63938V25.0646Z" fill="black"/>
</g>
</svg>
