<svg width="21" height="22" viewBox="0 0 21 22" fill="none" xmlns="http://www.w3.org/2000/svg">
<path fill-rule="evenodd" clip-rule="evenodd" d="M3 0.0961914H18C19.65 0.0961914 21 1.44509 21 3.09375V18.0815C21 19.7302 19.65 21.0791 18 21.0791H3C1.35 21.0791 0 19.7302 0 18.0815V3.09375C0 1.44509 1.35 0.0961914 3 0.0961914ZM14 10.5876C14 8.65913 12.43 7.09033 10.5 7.09033C8.57 7.09033 7 8.65913 7 10.5876C7 12.5162 8.57 14.085 10.5 14.085C12.43 14.085 14 12.5162 14 10.5876ZM3 18.0815V9.08887H4.181C4.0626 9.57974 4.00186 10.0827 4 10.5876C4 14.1746 6.91015 17.0824 10.5 17.0824C14.0899 17.0824 17 14.1746 17 10.5876C16.9986 10.0827 16.9379 9.57965 16.819 9.08887H18V18.0815H3ZM14 7.09033H18V3.09375H14V7.09033Z" fill="white"/>
</svg>
