<svg width="27" height="16" viewBox="0 0 27 16" fill="none" xmlns="http://www.w3.org/2000/svg">
<path d="M16.138 11.5944C17.094 11.2856 18.318 13.6327 19.621 14.531C20.599 15.2114 21.348 15.0645 21.348 15.0645L24.821 15.0146C24.821 15.0146 26.636 14.9027 25.778 13.4618C25.707 13.3419 25.275 12.3937 23.193 10.4423C21.016 8.40098 21.311 8.73171 23.932 5.2026C25.529 3.05136 26.168 1.73744 25.968 1.1779C25.776 0.63934 24.603 0.779225 24.603 0.779225L20.69 0.806203C20.309 0.807202 19.986 0.925106 19.839 1.32078C19.836 1.32478 19.218 2.98542 18.394 4.39726C16.653 7.38382 15.958 7.54269 15.67 7.35584C15.009 6.92319 15.176 5.62026 15.176 4.69402C15.176 1.79939 15.608 0.592378 14.33 0.280634C13.903 0.176719 13.591 0.108775 12.502 0.0987827C11.11 0.0777999 9.92797 0.0987827 9.25797 0.427513C8.81297 0.650331 8.47197 1.13893 8.67897 1.16691C8.93897 1.20188 9.52197 1.32678 9.83397 1.75243C10.235 2.30398 10.223 3.53996 10.223 3.53996C10.223 3.53996 10.452 6.94817 9.68297 7.37083C9.15497 7.66059 8.43297 7.06907 6.87997 4.35729C6.08697 2.97043 5.48797 1.43769 5.48797 1.43769C5.48797 1.43769 5.37197 1.15292 5.16197 0.997047C4.91197 0.812198 4.56197 0.753247 4.56197 0.753247L0.84797 0.777227C0.84797 0.777227 0.28997 0.793214 0.0849697 1.03901C-0.0970303 1.25683 0.0699697 1.70647 0.0699697 1.70647C0.0699697 1.70647 2.97897 8.58183 6.27297 12.045C9.29297 15.2244 12.725 15.0136 12.725 15.0136H14.28C14.28 15.0136 14.749 14.9596 14.989 14.7018C15.213 14.462 15.203 14.0114 15.203 14.0114C15.203 14.0114 15.172 11.9041 16.138 11.5944Z" fill="white"/>
</svg>
